<?xml version="1.0" standalone="no"?><!DOCTYPE svg PUBLIC "-//W3C//DTD SVG 1.1//EN" "http://www.w3.org/Graphics/SVG/1.1/DTD/svg11.dtd"><svg t="1576833514704" class="icon" viewBox="0 0 1024 1024" version="1.1" xmlns="http://www.w3.org/2000/svg" p-id="2057" xmlns:xlink="http://www.w3.org/1999/xlink" width="48" height="48"><defs><style type="text/css"></style></defs><path d="M937.596178 15.364413a63.99972 63.99972 0 0 0-90.239605 7.039969L511.99804 417.282654 176.639507 22.404382a63.99972 63.99972 0 0 0-97.279574 83.199636L369.918662 448.00252H255.99916a63.99972 63.99972 0 0 0 0 127.99944h191.99916v127.99944H255.99916a63.99972 63.99972 0 0 0 0 127.99944h191.99916v127.99944a63.99972 63.99972 0 0 0 127.99944 0v-127.99944h191.99916a63.99972 63.99972 0 0 0 0-127.99944H575.99776V576.00196h191.99916a63.99972 63.99972 0 0 0 0-127.99944H654.077418l290.558729-342.398502a63.99972 63.99972 0 0 0-7.039969-90.239605z" fill="#d4237a" p-id="2058"></path></svg>