<?xml version="1.0" standalone="no"?><!DOCTYPE svg PUBLIC "-//W3C//DTD SVG 1.1//EN" "http://www.w3.org/Graphics/SVG/1.1/DTD/svg11.dtd"><svg t="1576833148816" class="icon" viewBox="0 0 1024 1024" version="1.1" xmlns="http://www.w3.org/2000/svg" p-id="1879" width="48" height="48" xmlns:xlink="http://www.w3.org/1999/xlink"><defs><style type="text/css"></style></defs><path d="M863.573333 17.066667H163.84C85.333333 17.066667 17.066667 81.92 17.066667 163.84v426.666667c0 78.506667 64.853333 146.773333 146.773333 146.773333h85.333333l-92.16 249.173333c-3.413333 6.826667 0 13.653333 6.826667 20.48 3.413333 3.413333 6.826667 3.413333 10.24 3.413334 3.413333 0 6.826667 0 10.24-3.413334l337.92-269.653333h344.746667c78.506667 0 146.773333-64.853333 146.773333-146.773333V163.84C1006.933333 81.92 942.08 17.066667 863.573333 17.066667z m-573.44 409.6c-37.546667 0-68.266667-30.72-68.266666-68.266667s30.72-68.266667 68.266666-68.266667 68.266667 30.72 68.266667 68.266667-30.72 68.266667-68.266667 68.266667z m204.8 0c-37.546667 0-68.266667-30.72-68.266666-68.266667s30.72-68.266667 68.266666-68.266667 68.266667 30.72 68.266667 68.266667-30.72 68.266667-68.266667 68.266667z m204.8 0c-37.546667 0-68.266667-30.72-68.266666-68.266667s30.72-68.266667 68.266666-68.266667 68.266667 30.72 68.266667 68.266667-30.72 68.266667-68.266667 68.266667z" fill="#1296db" p-id="1880"></path></svg>